PathFileType	4	(X/Y/Z)	/Users/itak/Documents/Research/Walk-IL/dataset/trc/00364_00011.trc
DataRate	CameraRate	NumFrames	NumMarkers	Units	OrigDataRate	OrigDataStartFrame	OrigNumFrames
100.000000	100.000000	4	56	mm	100.000000	229	306
Frame#	Time	RPSI			LPSI			L3			STRN			T10			C7			CLAV			RBAK			LBAK			LSHO			LUPA			LAEL			LAOL			LWTS			LWPS			LFRA			LIFD			LHPS			LHTS			RSHO			RUPA			RAEL			RAOL			RWTS			RWPS			RFRA			RIFD			RHTS			RHPS			RBHD			LFHD			RFHD			LBHD			LHIP			RHIP			RASI			LASI			LKNE			LTHI			LANK			LTIP			LTOE			LMT1			LMT5			LHEE			RKNE			RTHI			RANK			RTIP			RTOE			RMT1			RMT5			RHEE			*53			*54			*55			
		X1	Y1	Z1	X2	Y2	Z2	X3	Y3	Z3	X4	Y4	Z4	X5	Y5	Z5	X6	Y6	Z6	X7	Y7	Z7	X8	Y8	Z8	X9	Y9	Z9	X10	Y10	Z10	X11	Y11	Z11	X12	Y12	Z12	X13	Y13	Z13	X14	Y14	Z14	X15	Y15	Z15	X16	Y16	Z16	X17	Y17	Z17	X18	Y18	Z18	X19	Y19	Z19	X20	Y20	Z20	X21	Y21	Z21	X22	Y22	Z22	X23	Y23	Z23	X24	Y24	Z24	X25	Y25	Z25	X26	Y26	Z26	X27	Y27	Z27	X28	Y28	Z28	X29	Y29	Z29	X30	Y30	Z30	X31	Y31	Z31	X32	Y32	Z32	X33	Y33	Z33	X34	Y34	Z34	X35	Y35	Z35	X36	Y36	Z36	X37	Y37	Z37	X38	Y38	Z38	X39	Y39	Z39	X40	Y40	Z40	X41	Y41	Z41	X42	Y42	Z42	X43	Y43	Z43	X44	Y44	Z44	X45	Y45	Z45	X46	Y46	Z46	X47	Y47	Z47	X48	Y48	Z48	X49	Y49	Z49	X50	Y50	Z50	X51	Y51	Z51	X52	Y52	Z52	X53	Y53	Z53	X54	Y54	Z54	X55	Y55	Z55	X56	Y56	Z56	

230	2.29	597.7557373046875	969.34912109375	-432.9610900878906	472.8816223144531	971.9956665039062	-401.6328735351562	540.5274047851562	1027.194091796875	-417.9705200195312	472.8212890625	1227.355590820312	-627.7197265625	537.3504028320312	1147.058837890625	-400.8618469238281	506.0621948242188	1396.53369140625	-420.1769714355469	475.926025390625	1350.192626953125	-576.6974487304688	587.4298706054688	1256.7880859375	-402.1310424804688	412.2505798339844	1354.607788085938	-388.1326293945312	335.8868713378906	1373.984130859375	-455.8091430664062	281.3043823242188	1251.933715820312	-422.9794616699219	271.2966918945312	1048.581787109375	-428.5177001953125	346.8449096679688	1036.671875	-391.7270202636719	276.3090209960938	804.155029296875	-528.0940551757812	243.2599182128906	793.7010498046875	-468.2735900878906	260.1412353515625	943.8861083984375	-436.6997680664062	272.5769653320312	642.0775146484375	-529.4486694335938	250.6941528320312	724.5725708007812	-466.2804565429688	258.2911376953125	726.8487548828125	-529.644287109375	651.0725708007812	1394.976684570312	-514.2341918945312	715.330322265625	1333.211547851562	-527.3516845703125	779.8104858398438	1086.043579101562	-615.322021484375	717.55419921875	1068.298095703125	-541.4624633789062	722.1513061523438	923.12060546875	-800.430908203125	790.5328369140625	893.31640625	-781.6400146484375	789.5641479492188	1031.680419921875	-663.0398559570312	729.8147583007812	781.0953979492188	-898.4111328125	733.0408935546875	850.594482421875	-875.3471069335938	785.5411376953125	829.0366821289062	-835.6287231445312	574.958740234375	1590.6083984375	-441.8321228027344	422.1932678222656	1644.619384765625	-572.9592895507812	522.9996948242188	1648.439331054688	-584.7822875976562	437.7340698242188	1573.148803710938	-401.0765075683594	351.2517395019531	922.2705688476562	-464.3657531738281	685.444091796875	918.8995361328125	-534.1912231445312	619.9115600585938	949.9619140625	-628.7160034179688	382.1329040527344	953.2055053710938	-595.5104370117188	300.2794799804688	477.0956115722656	-599.8909301757812	307.11181640625	612.9226684570312	-566.3350219726562	287.7112731933594	56.74729919433594	-490.1460266113281	282.7992248535156	262.7091064453125	-541.2695922851562	303.1832580566406	81.20192718505859	-701.2734375	353.6992492675781	50.84878540039062	-644.16650390625	250.0542907714844	71.05284881591797	-608.0647583007812	360.5017700195312	43.60553741455078	-472.877197265625	636.8858032226562	455.9751586914062	-603.1821899414062	660.990966796875	716.6619873046875	-623.8068237304688	615.2771606445312	42.08244705200195	-535.5050659179688	621.863037109375	336.6979675292969	-610.8130493164062	525.3753051757812	38.04240417480469	-717.4951782226562	496.3563842773438	36.82645034790039	-654.1814575195312	613.9654541015625	28.59175491333008	-635.3602905273438	576.2593383789062	48.79357528686523	-479.054443359375	nan	nan	nan	nan	nan	nan	nan	nan	nan	
231	2.3	596.2710571289062	969.528564453125	-434.8091125488281	471.083251953125	972.2112426757812	-404.4209289550781	538.9381713867188	1027.081787109375	-420.3609924316406	473.2222900390625	1227.337768554688	-630.3497924804688	535.8876342773438	1146.935302734375	-403.09912109375	505.3858337402344	1396.445434570312	-422.4284973144531	476.2181091308594	1350.176147460938	-579.2944946289062	586.2525634765625	1256.528930664062	-403.8331604003906	411.1029052734375	1354.821166992188	-391.1748962402344	335.3507080078125	1374.320556640625	-459.4303894042969	280.4091186523438	1252.231201171875	-427.1258544921875	271.0245361328125	1048.878173828125	-432.4612121582031	346.2706909179688	1037.15625	-394.9626770019531	277.6529541015625	803.4188842773438	-530.0478515625	243.9248199462891	793.5444946289062	-470.519775390625	260.2185363769531	944.1574096679688	-440.1162719726562	273.3809509277344	641.6773681640625	-529.680908203125	251.8423919677734	724.416015625	-467.5334777832031	260.1630249023438	725.9366455078125	-530.8197021484375	651.101318359375	1394.431274414062	-515.6416015625	715.12548828125	1332.287475585938	-528.4596557617188	778.4302978515625	1084.971069335938	-617.0658569335938	715.8901977539062	1067.73681640625	-543.3683471679688	721.10546875	922.4782104492188	-802.7998046875	789.3775634765625	892.6588745117188	-783.7511596679688	788.1709594726562	1030.736206054688	-664.9008178710938	729.0640258789062	780.4138793945312	-900.807861328125	732.307373046875	849.9541625976562	-877.7113647460938	784.5548095703125	828.3473510742188	-837.7401123046875	575.2072143554688	1590.532836914062	-444.7002868652344	422.6952819824219	1644.663696289062	-576.060302734375	523.5569458007812	1648.296875	-587.77783203125	437.915283203125	1573.370239257812	-404.0782165527344	350.3813171386719	922.2840576171875	-467.8076782226562	684.3761596679688	918.5166625976562	-536.2920532226562	620.1723022460938	949.985107421875	-630.333740234375	382.0030517578125	952.87939453125	-599.0643310546875	300.5751037597656	475.8591003417969	-600.0902099609375	307.1285400390625	612.3831176757812	-567.3912353515625	285.1439819335938	55.34078598022461	-495.5377807617188	281.7520141601562	261.5332641601562	-544.66357421875	304.3739318847656	76.20352172851562	-706.66796875	354.1275024414062	47.33808135986328	-648.3480834960938	249.4670867919922	67.49034118652344	-614.3707275390625	357.528564453125	42.68621444702148	-476.8992614746094	637.8511352539062	455.8714599609375	-602.6519165039062	661.7863159179688	716.7257690429688	-624.1043701171875	615.2203369140625	42.03960418701172	-535.4283447265625	622.4821166992188	336.733642578125	-610.2283325195312	525.391845703125	38.14602661132812	-717.3795166015625	496.4895935058594	36.97296142578125	-654.2036743164062	613.9976806640625	28.57791709899902	-635.32763671875	576.2431030273438	48.75336456298828	-479.0162353515625	nan	nan	nan	nan	nan	nan	nan	nan	nan	
232	2.31	594.6834106445312	969.75439453125	-436.6387329101562	469.1963500976562	972.4161987304688	-407.1861877441406	537.27392578125	1026.9150390625	-422.7347717285156	473.540771484375	1227.299072265625	-632.8845825195312	534.3178100585938	1146.762451171875	-405.2254028320312	504.6242065429688	1396.332763671875	-424.5799865722656	476.4344177246094	1350.138061523438	-581.7847900390625	584.9673461914062	1256.212158203125	-405.4351806640625	409.8585815429688	1354.995239257812	-394.1275939941406	334.7434997558594	1374.640014648438	-462.9600219726562	279.4111022949219	1252.504272460938	-431.2148132324219	270.6277770996094	1049.158813476562	-436.4570007324219	345.5729064941406	1037.6044921875	-398.2008972167969	278.9761047363281	802.7105102539062	-532.1423950195312	244.48974609375	793.3963012695312	-472.9675903320312	260.1973876953125	944.4064331054688	-443.6566162109375	274.4738464355469	641.319580078125	-530.0242919921875	252.9174346923828	724.26611328125	-468.9840393066406	261.9956970214844	725.059814453125	-532.17724609375	651.0474243164062	1393.862670898438	-516.9365844726562	714.826171875	1331.3369140625	-529.409912109375	777.0008544921875	1083.810424804688	-618.436279296875	714.0606689453125	1067.031616210938	-545.09716796875	719.9998168945312	921.5748291015625	-804.635498046875	788.1505126953125	891.7531127929688	-785.3219604492188	786.72900390625	1029.645385742188	-666.3347778320312	728.1781005859375	779.3569946289062	-902.533203125	731.4860229492188	848.9874877929688	-879.4845581054688	783.4769287109375	827.3543090820312	-839.2626342773438	575.3863525390625	1590.422973632812	-447.4661865234375	423.1425476074219	1644.66796875	-579.0908203125	524.0634765625	1648.099731445312	-590.6867065429688	438.0088806152344	1573.581787109375	-406.9898986816406	349.489013671875	922.2886352539062	-471.115966796875	683.304931640625	918.266845703125	-538.2153930664062	620.3301391601562	950.05859375	-631.9403686523438	381.7926635742188	952.4939575195312	-602.555908203125	300.8130493164062	474.4931640625	-600.0140991210938	306.9990234375	611.797607421875	-568.3765258789062	283.0675048828125	54.13454437255859	-500.3074645996094	280.9209899902344	260.4088745117188	-547.6281127929688	305.7901000976562	70.26165008544922	-711.4327392578125	354.9315795898438	43.38415908813477	-651.8134155273438	249.2272338867188	63.46891403198242	-619.9959716796875	355.0348205566406	42.21617889404297	-480.192626953125	638.8015747070312	455.8117370605469	-601.94970703125	662.4591674804688	716.768310546875	-624.3192138671875	615.1727905273438	41.98646545410156	-535.3408203125	623.0927734375	336.8187561035156	-609.49658203125	525.437744140625	38.27437591552734	-717.2455444335938	496.6204223632812	37.10220718383789	-654.205322265625	614.0340576171875	28.55804061889648	-635.2908325195312	576.2333374023438	48.69557952880859	-478.9639282226562	nan	nan	nan	nan	nan	nan	nan	nan	nan	
233	2.32	592.9847412109375	970.0253295898438	-438.4535827636719	467.2436828613281	972.6239013671875	-409.9384155273438	535.5305786132812	1026.692504882812	-425.1033020019531	473.7613830566406	1227.239501953125	-635.32958984375	532.6478881835938	1146.544921875	-407.241455078125	503.7857360839844	1396.194946289062	-426.641845703125	476.5673522949219	1350.078125	-584.1727905273438	583.5900268554688	1255.843872070312	-406.9522399902344	408.5466003417969	1355.127319335938	-396.982666015625	334.0640869140625	1374.942138671875	-466.3874206542969	278.3167419433594	1252.760498046875	-435.2257995605469	270.1134033203125	1049.420288085938	-440.4761962890625	344.7625427246094	1038.024658203125	-401.4328918457031	280.2394714355469	802.0418701171875	-534.3886108398438	244.9457855224609	793.26025390625	-475.6124877929688	260.0758056640625	944.6331176757812	-447.303466796875	276.03564453125	640.961181640625	-530.4674682617188	253.8941497802734	724.12353515625	-470.648681640625	263.7689819335938	724.231689453125	-533.7314453125	650.9071655273438	1393.267211914062	-518.1298828125	714.4381103515625	1330.368041992188	-530.2212524414062	775.5335693359375	1082.572265625	-619.4473876953125	712.0599975585938	1066.156494140625	-546.7039794921875	718.8345947265625	920.4144287109375	-805.9505004882812	786.8582153320312	890.5958862304688	-786.3606567382812	785.245361328125	1028.4091796875	-667.3543701171875	727.1563720703125	777.9415283203125	-903.6032104492188	730.5654907226562	847.6925659179688	-880.6725463867188	782.3011474609375	826.05517578125	-840.2030639648438	575.4943237304688	1590.275756835938	-450.1313781738281	423.5314636230469	1644.631713867188	-582.0487670898438	524.5103759765625	1647.847900390625	-593.5093994140625	438.0099792480469	1573.779541015625	-409.8140563964844	348.5631713867188	922.2730712890625	-474.298095703125	682.246826171875	918.2013549804688	-539.9218139648438	620.3516235351562	950.155029296875	-633.537109375	381.4875183105469	952.0519409179688	-605.9803466796875	300.9710998535156	473.01953125	-599.626708984375	306.7768859863281	611.1436767578125	-569.2598876953125	281.4727172851562	53.0738410949707	-504.471435546875	280.2784729003906	259.3175659179688	-550.113037109375	307.2826538085938	63.7702751159668	-715.5386962890625	355.98388671875	39.23910522460938	-654.6080322265625	249.2535400390625	59.2301139831543	-624.8924560546875	353.0207214355469	42.06969451904297	-482.830810546875	639.6680908203125	455.7942810058594	-601.0780639648438	662.975830078125	716.7808837890625	-624.4746704101562	615.1392211914062	41.9205207824707	-535.2423095703125	623.6823120117188	336.9542846679688	-608.6290283203125	525.5171508789062	38.427978515625	-717.09765625	496.7493286132812	37.21782684326172	-654.184814453125	614.0740356445312	28.53192710876465	-635.2488403320312	576.2354736328125	48.62414932250977	-478.8977355957031	nan	nan	nan	nan	nan	nan	nan	nan	nan	
